<svg width="38" height="26" viewBox="0 0 38 26" fill="none" xmlns="http://www.w3.org/2000/svg">
<path d="M35.6667 10.9167H2.33333C1.08333 10.9167 0.25 11.75 0.25 13C0.25 14.25 1.08333 15.0833 2.33333 15.0833H35.6667C36.9167 15.0833 37.75 14.25 37.75 13C37.75 11.75 36.9167 10.9167 35.6667 10.9167ZM2.33333 4.66667H35.6667C36.9167 4.66667 37.75 3.83333 37.75 2.58333C37.75 1.33333 36.9167 0.5 35.6667 0.5H2.33333C1.08333 0.5 0.25 1.33333 0.25 2.58333C0.25 3.83333 1.08333 4.66667 2.33333 4.66667ZM35.6667 21.3333H2.33333C1.08333 21.3333 0.25 22.1667 0.25 23.4167C0.25 24.6667 1.08333 25.5 2.33333 25.5H35.6667C36.9167 25.5 37.75 24.6667 37.75 23.4167C37.75 22.1667 36.9167 21.3333 35.6667 21.3333Z" fill="#535353"/>
</svg>
