<svg width="24" height="24" viewBox="0 0 24 24" fill="none" xmlns="http://www.w3.org/2000/svg">
<g id="arrow">
<path id="Vector" d="M12.7098 14.83L16.9498 10.59C17.0435 10.497 17.1179 10.3864 17.1687 10.2646C17.2195 10.1427 17.2456 10.012 17.2456 9.88C17.2456 9.74798 17.2195 9.61728 17.1687 9.49542C17.1179 9.37356 17.0435 9.26296 16.9498 9.17C16.7624 8.98375 16.509 8.8792 16.2448 8.8792C15.9806 8.8792 15.7272 8.98375 15.5398 9.17L11.9998 12.71L8.45981 9.17C8.27244 8.98374 8.01899 8.8792 7.75481 8.8792C7.49062 8.8792 7.23717 8.98374 7.04981 9.17C6.95713 9.26344 6.8838 9.37425 6.83404 9.49609C6.78427 9.61793 6.75905 9.74839 6.75981 9.88C6.75905 10.0116 6.78427 10.1421 6.83404 10.2639C6.8838 10.3857 6.95713 10.4966 7.04981 10.59L11.2898 14.83C11.3828 14.9237 11.4934 14.9981 11.6152 15.0489C11.7371 15.0997 11.8678 15.1258 11.9998 15.1258C12.1318 15.1258 12.2625 15.0997 12.3844 15.0489C12.5062 14.9981 12.6168 14.9237 12.7098 14.83Z" fill="#535353"/>
</g>
</svg>
